#!OML:ASF F:\VICON\USERDATA\INSTALL\rory3\rory3.ASF
:FULLY-SPECIFIED
:DEGREES
123
root -0.33830063279652994 18.033791549601656 5.996645451972498 11.201728657537663 -0.28159124059488505 -1.206010717690225
lfemur -25.937243486437183 7.979006691039724 -18.55266709592129
ltibia 46.353090410162444
lfoot -3.7006155124092466 -4.113431954104963
ltoes -13.055808464305933
rfemur -20.643349767383036 -3.054902841905003 21.065473163901917
rtibia 21.31429531998026
rfoot -14.606726310087742 -0.5923727595598685
rtoes 5.380652365634649
lowerback 10.12622054614382 0.45538780595841255 -0.8451235103071656
upperback 7.440217558274054 0.629075747998642 1.287169111801739
thorax 0.78072740998023 0.22759069538212093 0.7738647753441574
lowerneck -15.654029284144908 0.2713644707866059 -1.6170601022604343
upperneck 15.801826792676287 0.5441120505892022 0.1347281189985543
head 6.675713316712109 0.18050294467564126 0.10036883590826245
lclavicle 5.753170868325473e-16 -3.1172591209900705e-16
lhumerus -15.272152054666956 1.6081714093371235 85.15054658102774
lradius 17.27913244981914
lwrist 5.142895399852864
lhand -25.86252347606658 -7.338094574466334
lfingers 7.125019999999998
lthumb 1.3053030885723391 23.457061518053244
rclavicle 5.745993108267131e-16 -3.131405848084552e-16
rhumerus -23.41251300553637 -7.685421694087406 -77.77476811106789
rradius 24.539668947084298
rwrist 33.0620394179813
rhand -21.932993911336656 -26.464367196835152
rfingers 7.125019999999998
rthumb 4.115454991718944 -57.04806431980472
124
root -0.33759224954918327 18.078525802620184 5.89323908816287 11.386327291132694 -0.3198618071390176 -1.187140415719249
lfemur -26.139222420877775 8.239781316299235 -18.65580427802235
ltibia 46.54470690218787
lfoot -3.7459299745317836 -4.097536630383833
ltoes -13.897570644901947
rfemur -20.42386255956634 -3.0813681266924697 21.05506650532513
rtibia 21.555767095779693
rfoot -14.507466881931954 -0.4713264630407643
rtoes 5.556934687839025
lowerback 10.321974600804921 0.4088024368431531 -0.8085780961600132
upperback 7.529649342256462 0.5710091562115516 1.2796990607794758
thorax 0.81509286414627 0.20182226293980274 0.7618824475670933
lowerneck -15.701678003302753 0.30102724958645566 -1.6301866808417944
upperneck 15.865870860853082 0.5915723464748168 0.07876563321621788
head 6.7421817266878525 0.1905408856426417 0.11544082611771078
lclavicle 5.753112989006911e-16 -3.117151460164146e-16
lhumerus -14.595322930060119 1.5583145394461801 85.28515632732086
lradius 17.385348743434218
lwrist 5.288983055475176
lhand -25.808640643734215 -7.270978323675858
lfingers 7.125019999999998
lthumb 1.2736533339896225 23.47475216150477
rclavicle 5.747031148952416e-16 -3.1298143086166626e-16
rhumerus -23.846441577353513 -7.694679050648406 -77.47710538772091
rradius 24.28926923184812
rwrist 33.41025392397877
rhand -21.852959594701925 -26.300177503531952
rfingers 7.125019999999998
rthumb 4.157975878291797 -56.87431674358979
125
root -0.33990895476710464 18.113881418363693 5.6934335266282705 11.519739276987794 -0.29278211444386437 -1.138865699227795
lfemur -26.398668067181074 8.445560333181678 -18.78273741827408
ltibia 46.71900928265207
lfoot -3.7852310485453096 -4.127059711526724
ltoes -14.484355624590194
rfemur -20.142561186815684 -3.080892180324015 21.00579549182014
rtibia 21.763294297520517
rfoot -14.47852224540773 -0.4158988385106994
rtoes 5.59652467398131
lowerback 10.340131970642966 0.3620508848252487 -0.7739778409558187
upperback 7.5987374390204865 0.5192189295660672 1.2574920598945483
thorax 0.9137310761251183 0.1789706884704467 0.7459018895201659
lowerneck -15.736603072717383 0.31154808585555227 -1.6612149060277006
upperneck 15.930549482348074 0.6223618423007125 0.04436390184814121
head 6.80946497872333 0.1951357836497653 0.1367399443745862
lclavicle 5.753811863773098e-16 -3.115865844330481e-16
lhumerus -13.975234526678603 1.3822341910802318 85.50188475238558
lradius 17.522424792235388
lwrist 5.455636815471041
lhand -25.781148098611176 -7.244933762243242
lfingers 7.125019999999998
lthumb 1.1925825656176865 23.414795276734964
rclavicle 5.749543938712125e-16 -3.12599287935212e-16
rhumerus -24.39894405852767 -7.77792557654702 -77.19469210926192
rradius 24.008496099294973
rwrist 33.83224822915859
rhand -21.75160561926677 -26.1744000253307
rfingers 7.125019999999998
rthumb 4.251985964731448 -56.71178131632422
126
root -0.34074556157193164 18.143390335214054 5.573554862926537 11.618562043858283 -0.23228993701298828 -1.1159275158867135
lfemur -26.812224910432747 8.556667896884017 -18.8802728063754
ltibia 47.05092899970537
lfoot -3.799884195344063 -4.107960176698692
ltoes -14.870386927491523
rfemur -19.92787756799262 -3.1195417178473948 21.00465519407664
rtibia 22.049875421261007
rfoot -14.537614377684644 -0.4575266864862373
rtoes 5.626415603381437
lowerback 10.27302495303865 0.32348109640440514 -0.7041623273414815
upperback 7.644663801345691 0.4795288916607989 1.2450968038063959
thorax 1.066775335649156 0.16065775974967353 0.7286862668680669
lowerneck -15.74453044153881 0.3143152804646061 -1.6897745717917896
upperneck 15.950943963886486 0.638555736544546 -0.00048588491133776807
head 6.832036270172 0.1949639541934708 0.14500732775256703
lclavicle 5.757499025962438e-16 -3.110490567409011e-16
lhumerus -13.622670892198832 1.059384251200702 85.71483791376764
lradius 17.69930257154156
lwrist 5.7705002096247116
lhand -25.767629608684082 -7.2320387165645235
lfingers 7.125019999999998
lthumb 1.0986155748884192 23.34513063091219
rclavicle 5.749488966788606e-16 -3.1260955224251486e-16
rhumerus -25.001918733945026 -7.91079836323667 -76.96012683909805
rradius 23.748559766812406
rwrist 34.2506059893507
rhand -21.613748361003573 -26.06119983783508
rfingers 7.125019999999998
rthumb 4.368105072922088 -56.55762960440382
127
root -0.3410905065529904 18.17932317485635 5.449683924613719 11.705214924231953 -0.1889990435004062 -1.0778621754683102
lfemur -27.289550904208216 8.60879918956973 -18.987950610892522
ltibia 47.46479895871499
lfoot -3.886230671212509 -4.0520665197938515
ltoes -15.212023979069969
rfemur -19.896159833513437 -3.1850782831558826 20.987048100866414
rtibia 22.53951438758873
rfoot -14.609321424542237 -0.5158021625251852
rtoes 5.702112476136762
lowerback 10.271817766639016 0.3056331507382204 -0.6407423805528507
upperback 7.643424771825394 0.46296577503208985 1.234822623037993
thorax 1.2183083274615587 0.14995069335880426 0.707483613816569
lowerneck -15.739209748730751 0.3193029107695531 -1.714717857535471
upperneck 15.863226538295985 0.6541641756469037 -0.04201740106352096
head 6.8062568676799975 0.1950862876940191 0.1580195044559798
lclavicle 5.75541132018005e-16 -3.1138402601123346e-16
lhumerus -13.614003180931324 0.5681943200674098 85.86171090453247
lradius 17.95020192038206
lwrist 6.216054352067943
lhand -25.73912642287962 -7.182498310992777
lfingers 7.125019999999998
lthumb 1.0411894852256807 23.332550278741902
rclavicle 5.747878690459569e-16 -3.1285527819446816e-16
rhumerus -25.591328771443944 -8.088179949569607 -76.77934778511337
rradius 23.522949865087046
rwrist 34.485234550534145
rhand -21.463636228740338 -25.95110231163683
rfingers 7.125019999999998
rthumb 4.490664472062594 -56.43927052135338
128
root -0.3446002467737998 18.20620452226388 5.225827845602172 11.766868329268195 -0.14924287992301033 -1.0879387500669884
lfemur -27.605970916071243 8.605117209383996 -19.037156405298013
ltibia 47.87993889303925
lfoot -4.104646002431302 -4.063134516653775
ltoes -15.50679409666431
rfemur -19.90137272942718 -3.2543904496407365 21.00226141372305
rtibia 23.023657857268418
rfoot -14.703936888234947 -0.5563087763116377
rtoes 5.7526574201416345
lowerback 10.348546175664112 0.2911210542606295 -0.5590493687662623
upperback 7.630204538685657 0.4558873389227667 1.2510327090587094
thorax 1.3506171233620654 0.14462612851966986 0.7004556820079708
lowerneck -15.741310829128716 0.3260857381823375 -1.7368627374388212
upperneck 15.70454609358741 0.6703959515689417 -0.07300129325963209
head 6.779950101956304 0.19329900806559136 0.1780128140978856
lclavicle 5.754845089591176e-16 -3.1145750054973744e-16
lhumerus -13.925338248489176 0.004645370364815715 85.90909478077663
lradius 18.2198849251085
lwrist 6.639290200041475
lhand -25.736862430221855 -7.170310522970782
lfingers 7.125019999999998
lthumb 1.0418855267954301 23.36996047513849
rclavicle 5.746360880293397e-16 -3.130856612840438e-16
rhumerus -26.103664143163037 -8.373458646153178 -76.62756221323525
rradius 23.31294250144891
rwrist 34.675925572751446
rhand -21.33129089266874 -25.8644904950371
rfingers 7.125019999999998
rthumb 4.615086602622721 -56.340723844394816
